REM DIRINDEX 1\2,1\3,1\4,1\5
REM DIRNAME folder01,folder02,folder03,folder04,folder05
TITLE ""
FILE "Round-10-226-227.mp3" MP3
  TRACK 01 AUDIO
    TITLE "0:"
    INDEX 01 00:00:00
  TRACK 02 AUDIO
    TITLE "2:cjc093_2527"
    INDEX 01 00:00:03
  TRACK 03 AUDIO
    TITLE "0:"
    INDEX 01 00:01:01
  TRACK 04 AUDIO
    TITLE "3:cjc093_2528"
    INDEX 01 00:01:42
  TRACK 05 AUDIO
    TITLE "0:"
    INDEX 01 00:03:31
  TRACK 06 AUDIO
    TITLE "4:cjc093_2529"
    INDEX 01 00:03:51
  TRACK 07 AUDIO
    TITLE "0:"
    INDEX 01 00:06:16
  TRACK 08 AUDIO
    TITLE "2:cjc093_2530"
    INDEX 01 00:07:29
  TRACK 09 AUDIO
    TITLE "0:"
    INDEX 01 00:09:40
  TRACK 10 AUDIO
    TITLE "3:cjc093_2531"
    INDEX 01 00:10:02
  TRACK 11 AUDIO
    TITLE "0:"
    INDEX 01 00:11:54
  TRACK 12 AUDIO
    TITLE "4:cjc093_2532"
    INDEX 01 00:12:03
  TRACK 13 AUDIO
    TITLE "0:"
    INDEX 01 00:14:35
  TRACK 14 AUDIO
    TITLE "2:cjc093_2533"
    INDEX 01 00:15:48
  TRACK 15 AUDIO
    TITLE "0:"
    INDEX 01 00:16:69
  TRACK 16 AUDIO
    TITLE "3:cjc093_2534"
    INDEX 01 00:17:10
  TRACK 17 AUDIO
    TITLE "0:"
    INDEX 01 00:19:52
  TRACK 18 AUDIO
    TITLE "4:cjc093_2535"
    INDEX 01 00:20:22
  TRACK 19 AUDIO
    TITLE "0:"
    INDEX 01 00:24:27
  TRACK 20 AUDIO
    TITLE "2:cjc093_2536"
    INDEX 01 00:25:33
  TRACK 21 AUDIO
    TITLE "0:"
    INDEX 01 00:26:46
  TRACK 22 AUDIO
    TITLE "3:cjc093_2537"
    INDEX 01 00:27:24
  TRACK 23 AUDIO
    TITLE "0:"
    INDEX 01 00:29:34
  TRACK 24 AUDIO
    TITLE "4:cjc093_2538"
    INDEX 01 00:29:54
  TRACK 25 AUDIO
    TITLE "0:"
    INDEX 01 00:32:72
  TRACK 26 AUDIO
    TITLE "3:cjc093_2539"
    INDEX 01 00:34:10
  TRACK 27 AUDIO
    TITLE "0:"
    INDEX 01 00:36:58
  TRACK 28 AUDIO
    TITLE "4:cjc093_2540"
    INDEX 01 00:37:03
  TRACK 29 AUDIO
    TITLE "0:"
    INDEX 01 00:40:44
  TRACK 30 AUDIO
    TITLE "2:cjc093_2541"
    INDEX 01 00:41:55
  TRACK 31 AUDIO
    TITLE "0:"
    INDEX 01 00:42:74
  TRACK 32 AUDIO
    TITLE "3:cjc093_2542"
    INDEX 01 00:43:25
  TRACK 33 AUDIO
    TITLE "0:"
    INDEX 01 00:44:28
  TRACK 34 AUDIO
    TITLE "4:cjc093_2543"
    INDEX 01 00:44:69
  TRACK 35 AUDIO
    TITLE "0:"
    INDEX 01 00:47:60
  TRACK 36 AUDIO
    TITLE "2:cjc093_2544"
    INDEX 01 00:48:73
  TRACK 37 AUDIO
    TITLE "0:"
    INDEX 01 00:50:13
  TRACK 38 AUDIO
    TITLE "3:cjc093_2545"
    INDEX 01 00:50:44
  TRACK 39 AUDIO
    TITLE "0:"
    INDEX 01 00:51:40
  TRACK 40 AUDIO
    TITLE "4:cjc093_2546"
    INDEX 01 00:51:69
  TRACK 41 AUDIO
    TITLE "0:"
    INDEX 01 00:55:26
  TRACK 42 AUDIO
    TITLE "2:cjc093_2547"
    INDEX 01 00:56:39
  TRACK 43 AUDIO
    TITLE "0:"
    INDEX 01 00:57:41
  TRACK 44 AUDIO
    TITLE "3:cjc093_2548"
    INDEX 01 00:58:09
  TRACK 45 AUDIO
    TITLE "0:"
    INDEX 01 01:00:29
  TRACK 46 AUDIO
    TITLE "4:cjc093_2549"
    INDEX 01 01:00:49
  TRACK 47 AUDIO
    TITLE "0:"
    INDEX 01 01:04:15
  TRACK 48 AUDIO
    TITLE "3:cjc093_2550"
    INDEX 01 01:05:22
  TRACK 49 AUDIO
    TITLE "0:"
    INDEX 01 01:06:59
  TRACK 50 AUDIO
    TITLE "4:cjc093_2551"
    INDEX 01 01:07:19
  TRACK 51 AUDIO
    TITLE "0:"
    INDEX 01 01:10:04
  TRACK 52 AUDIO
    TITLE "2:cjc093_2552"
    INDEX 01 01:11:15
  TRACK 53 AUDIO
    TITLE "0:"
    INDEX 01 01:12:32
  TRACK 54 AUDIO
    TITLE "3:cjc093_2553"
    INDEX 01 01:13:16
  TRACK 55 AUDIO
    TITLE "0:"
    INDEX 01 01:15:44
  TRACK 56 AUDIO
    TITLE "4:cjc093_2554"
    INDEX 01 01:16:05
  TRACK 57 AUDIO
    TITLE "0:"
    INDEX 01 01:20:69
  TRACK 58 AUDIO
    TITLE "2:cjc093_2555"
    INDEX 01 01:22:15
  TRACK 59 AUDIO
    TITLE "0:"
    INDEX 01 01:23:16
  TRACK 60 AUDIO
    TITLE "3:cjc093_2556"
    INDEX 01 01:23:58
  TRACK 61 AUDIO
    TITLE "0:"
    INDEX 01 01:26:05
  TRACK 62 AUDIO
    TITLE "4:cjc093_2557"
    INDEX 01 01:26:70
  TRACK 63 AUDIO
    TITLE "0:"
    INDEX 01 01:30:42
